HIERARCHY
ROOT hip
{
  OFFSET 0.0 0.0 0.0
  CHANNELS 6 Xposition Yposition Zposition Zrotation Yrotation Xrotation
  JOINT abdomen
  {
    OFFSET 0.0 20.6881 -0.73152
    CHANNELS 3 Zrotation Xrotation Yrotation
    JOINT chest
    {
      OFFSET 0.0 11.7043 -0.48768
      CHANNELS 3 Zrotation Xrotation Yrotation
      JOINT neck
      {
        OFFSET 0.0 22.1894 -2.19456
        CHANNELS 3 Zrotation Xrotation Yrotation
        JOINT head
        {
          OFFSET -0.24384 7.07133 1.2192
          CHANNELS 3 Zrotation Xrotation Yrotation
          JOINT leftEye
          {
            OFFSET 4.14528 8.04674 8.04672
            CHANNELS 3 Zrotation Xrotation Yrotation
            End Site
            {
              OFFSET 1.0 0.0 0.0
            }
          }
          JOINT rightEye
          {
            OFFSET -3.6576 8.04674 8.04672
            CHANNELS 3 Zrotation Xrotation Yrotation
            End Site
            {
              OFFSET 1.0 0.0 0.0
            }
          }
        }
      }
      JOINT rCollar
      {
        OFFSET -2.68224 19.2634 -4.8768
        CHANNELS 3 Zrotation Xrotation Yrotation
        JOINT rShldr
        {
          OFFSET -8.77824 -1.95073 1.46304
          CHANNELS 3 Zrotation Xrotation Yrotation
          JOINT rForeArm
          {
            OFFSET -28.1742 -1.7115 0.48768
            CHANNELS 3 Zrotation Xrotation Yrotation
            JOINT rHand
            {
              OFFSET -22.5879 0.773209 7.07136
              CHANNELS 3 Zrotation Xrotation Yrotation
              JOINT rThumb1
              {
                OFFSET -1.2192 -0.487915 3.41376
                CHANNELS 3 Zrotation Xrotation Yrotation
                JOINT rThumb2
                {
                  OFFSET -3.37035 -0.52449 3.41376
                  CHANNELS 3 Zrotation Xrotation Yrotation
                  End Site
                  {
                    OFFSET -1.78271 -1.18214 1.43049
                  }
                }
              }
              JOINT rIndex1
              {
                OFFSET -7.75947 0.938293 5.60832
                CHANNELS 3 Zrotation Xrotation Yrotation
                JOINT rIndex2
                {
                  OFFSET -2.54057 -0.884171 1.56538
                  CHANNELS 3 Zrotation Xrotation Yrotation
                  End Site
                  {
                    OFFSET -1.62519 -0.234802 1.16502
                  }
                }
              }
              JOINT rMid1
              {
                OFFSET -8.24714 1.18213 3.41376
                CHANNELS 3 Zrotation Xrotation Yrotation
                JOINT rMid2
                {
                  OFFSET -3.10165 -0.590103 1.0647
                  CHANNELS 3 Zrotation Xrotation Yrotation
                  End Site
                  {
                    OFFSET -2.48547 -0.328903 0.83742
                  }
                }
              }
              JOINT rRing1
              {
                OFFSET -8.82822 0.546677 1.51678
                CHANNELS 3 Zrotation Xrotation Yrotation
                JOINT rRing2
                {
                  OFFSET -2.60934 -0.819778 -0.0198488
                  CHANNELS 3 Zrotation Xrotation Yrotation
                  End Site
                  {
                    OFFSET -2.33842 -0.294052 0.168128
                  }
                }
              }
              JOINT rPinky1
              {
                OFFSET -8.27202 -0.0477905 -0.4584
                CHANNELS 3 Zrotation Xrotation Yrotation
                JOINT rPinky2
                {
                  OFFSET -1.82734 -0.647385 -0.700984
                  CHANNELS 3 Zrotation Xrotation Yrotation
                  End Site
                  {
                    OFFSET -1.69225 -0.51767 -0.607171
                  }
                }
              }
            }
          }
        }
      }
      JOINT lCollar
      {
        OFFSET 2.68224 19.2634 -4.8768
        CHANNELS 3 Zrotation Xrotation Yrotation
        JOINT lShldr
        {
          OFFSET 8.77824 -1.95073 1.46304
          CHANNELS 3 Zrotation Xrotation Yrotation
          JOINT lForeArm
          {
            OFFSET 28.1742 -1.7115 0.48768
            CHANNELS 3 Zrotation Xrotation Yrotation
            JOINT lHand
            {
              OFFSET 22.5879 0.773209 7.07136
              CHANNELS 3 Zrotation Xrotation Yrotation
              JOINT lThumb1
              {
                OFFSET 1.2192 -0.487915 3.41376
                CHANNELS 3 Zrotation Xrotation Yrotation
                JOINT lThumb2
                {
                  OFFSET 3.37035 -0.52449 3.41376
                  CHANNELS 3 Zrotation Xrotation Yrotation
                  End Site
                  {
                    OFFSET 1.78271 -1.18214 1.43049
                  }
                }
              }
              JOINT lIndex1
              {
                OFFSET 7.75947 0.938293 5.60832
                CHANNELS 3 Zrotation Xrotation Yrotation
                JOINT lIndex2
                {
                  OFFSET 2.54057 -0.884171 1.56538
                  CHANNELS 3 Zrotation Xrotation Yrotation
                  End Site
                  {
                    OFFSET 1.62519 -0.234802 1.16502
                  }
                }
              }
              JOINT lMid1
              {
                OFFSET 8.24714 1.18213 3.41376
                CHANNELS 3 Zrotation Xrotation Yrotation
                JOINT lMid2
                {
                  OFFSET 3.10165 -0.590103 1.0647
                  CHANNELS 3 Zrotation Xrotation Yrotation
                  End Site
                  {
                    OFFSET 2.48547 -0.328903 0.83742
                  }
                }
              }
              JOINT lRing1
              {
                OFFSET 8.82822 0.546677 1.51678
                CHANNELS 3 Zrotation Xrotation Yrotation
                JOINT lRing2
                {
                  OFFSET 2.60934 -0.819778 -0.0198488
                  CHANNELS 3 Zrotation Xrotation Yrotation
                  End Site
                  {
                    OFFSET 2.33842 -0.294052 0.168128
                  }
                }
              }
              JOINT lPinky1
              {
                OFFSET 8.27202 -0.0477905 -0.4584
                CHANNELS 3 Zrotation Xrotation Yrotation
                JOINT lPinky2
                {
                  OFFSET 1.82734 -0.647385 -0.700984
                  CHANNELS 3 Zrotation Xrotation Yrotation
                  End Site
                  {
                    OFFSET 1.69225 -0.51767 -0.607171
                  }
                }
              }
            }
          }
        }
      }
    }
  }
  JOINT rButtock
  {
    OFFSET -8.77824 4.35084 1.2192
    CHANNELS 3 Zrotation Xrotation Yrotation
    JOINT rThigh
    {
      OFFSET 0.0 -1.70687 -2.19456
      CHANNELS 3 Zrotation Xrotation Yrotation
      JOINT rShin
      {
        OFFSET 0.0 -36.8199 0.73152
        CHANNELS 3 Zrotation Xrotation Yrotation
        JOINT rFoot
        {
          OFFSET 0.73152 -45.1104 -5.12064
          CHANNELS 3 Zrotation Xrotation Yrotation
          End Site
          {
            OFFSET -1.1221 -3.69964 12.103
          }
        }
      }
    }
  }
  JOINT lButtock
  {
    OFFSET 8.77824 4.35084 1.2192
    CHANNELS 3 Zrotation Xrotation Yrotation
    JOINT lThigh
    {
      OFFSET 0.0 -1.70687 -2.19456
      CHANNELS 3 Zrotation Xrotation Yrotation
      JOINT lShin
      {
        OFFSET 0.0 -36.8199 0.73152
        CHANNELS 3 Zrotation Xrotation Yrotation
        JOINT lFoot
        {
          OFFSET -0.73152 -45.1104 -5.12064
          CHANNELS 3 Zrotation Xrotation Yrotation
          End Site
          {
            OFFSET 1.1221 -3.69964 12.103
          }
        }
      }
    }
  }
}
MOTION
Frames: 6
Frame Time: 0.00833333
0.0 82.5558 0.0 4.0842 4.3571 10.0475 -8.71073 8.77631 2.74442 2.67304 -5.6572 0.610077 2.49978 -1.4326 -1.46832 -5.45145 -10.4775 -4.18184 -0.0 0.0 0.0 -0.0 0.0 0.0 8.78275e-14 7.15644e-14 6.21202e-15 78.6223 15.4448 -3.16795 -10.9028 -4.7083 19.5057 -0.0170895 -3.61154 -0.508285 6.00878e-10 7.72166e-10 -1.90187e-09 1.03982e-09 1.33286e-09 -3.29045e-09 6.00887e-10 7.72162e-10 -1.90188e-09 7.73091 5.47488 0.417314 6.00879e-10 7.72164e-10 -1.90187e-09 2.90554 0.965183 0.102902 6.00896e-10 7.72164e-10 -1.90187e-09 10.2786 0.731801 0.0259123 6.0087e-10 7.72169e-10 -1.90186e-09 2.22167 -0.733487 -0.20892 1.89645e-14 -2.22709e-14 5.71009e-14 -37.8801 -20.6408 7.65582 17.6987 -10.3663 -33.3477 -0.00416757 0.965375 -0.13562 1.63017e-10 1.47938e-09 2.34637e-09 2.87681e-10 2.55659e-09 4.05868e-09 1.63014e-10 1.47938e-09 2.34638e-09 -7.73091 5.47488 -0.417314 1.63018e-10 1.47938e-09 2.34637e-09 -2.90554 0.965183 -0.102902 1.63011e-10 1.47937e-09 2.34637e-09 -10.2786 0.731801 -0.0259123 1.63018e-10 1.47938e-09 2.34636e-09 -2.22167 -0.733487 0.20892 -2.03217e-16 0.0 -3.88251e-19 -14.2479 -24.1331 -12.3101 -1.78769 67.3479 1.94118 -0.678777 7.20377 -18.522 2.03217e-16 0.0 3.88251e-19 -5.36874 -27.9173 0.861397 0.204909 32.5104 -0.20871 3.39634 -9.53135 12.2665
0.24539 82.5592 1.4518999999999949 4.498 4.3702 9.9583 -9.05089 8.79386 2.22745 2.78379 -5.69516 0.469529 2.60576 -1.43008 -1.34935 -5.51096 -10.4727 -3.98252 -0.0 0.0 0.0 -0.0 0.0 0.0 1.07382e-13 7.90165e-14 2.39745e-14 78.5772 15.3502 -3.14099 -10.859 -4.67992 19.4225 -0.0153769 -3.4034 -0.478925 8.80306e-10 4.87182e-10 -8.87732e-10 1.52231e-09 8.42248e-10 -1.53652e-09 8.80312e-10 4.87179e-10 -8.87742e-10 7.73091 5.47488 0.417314 8.80304e-10 4.8718e-10 -8.87731e-10 2.90554 0.965183 0.102902 8.80319e-10 4.87181e-10 -8.8773e-10 10.2786 0.731801 0.0259123 8.80295e-10 4.87186e-10 -8.87723e-10 2.22167 -0.733487 -0.20892 1.63588e-14 -2.55741e-14 6.78667e-14 -37.6367 -20.66 7.67728 17.7253 -10.3943 -33.4068 -0.00206436 -1.1468 0.16142 4.35631e-10 4.71571e-10 1.56281e-09 7.53355e-10 8.14051e-10 2.70535e-09 4.35631e-10 4.71574e-10 1.56282e-09 -7.73091 5.47488 -0.417314 4.35632e-10 4.71572e-10 1.56281e-09 -2.90554 0.965183 -0.102902 4.35624e-10 4.71571e-10 1.56281e-09 -10.2786 0.731801 -0.0259123 4.35632e-10 4.71573e-10 1.56281e-09 -2.22167 -0.733487 0.20892 -2.03217e-16 0.0 -3.88251e-19 -15.4904 -26.2884 -13.4906 -1.88713 68.2987 2.10005 -1.53513 4.88582 -19.0429 2.03217e-16 0.0 3.88251e-19 -6.06759 -26.5925 0.452143 0.191117 32.16 -0.249068 3.49272 -9.35959 12.8421
0.49197999999999986 82.534 2.9081999999999937 4.9527 4.3034 9.8584 -9.46643 8.84353 1.77918 2.92966 -5.74583 0.34888 2.71024 -1.45286 -1.2326 -5.57808 -10.4564 -3.78871 -0.0 0.0 0.0 -0.0 0.0 0.0 1.33981e-13 8.11833e-14 4.39749e-14 78.5411 15.2016 -3.11546 -10.8082 -4.64705 19.3263 -0.010996 -2.99256 -0.420964 8.88197e-10 1.49559e-10 2.48719e-11 1.53594e-09 2.59823e-10 4.19221e-11 8.88201e-10 1.49557e-10 2.48592e-11 7.73091 5.47488 0.417314 8.88193e-10 1.49558e-10 2.48719e-11 2.90554 0.965183 0.102902 8.88207e-10 1.49559e-10 2.48711e-11 10.2786 0.731801 0.0259123 8.88185e-10 1.49563e-10 2.48815e-11 2.22167 -0.733487 -0.20892 1.51612e-14 -3.71757e-14 8.52196e-14 -37.3768 -20.6734 7.70234 17.7547 -10.4253 -33.4723 0.0119082 -3.11407 0.438089 5.17033e-10 -3.51714e-10 7.31493e-10 8.91783e-10 -6.08765e-10 1.26841e-09 5.17034e-10 -3.51711e-10 7.31499e-10 -7.73091 5.47488 -0.417314 5.17034e-10 -3.51713e-10 7.31493e-10 -2.90554 0.965183 -0.102902 5.17026e-10 -3.51714e-10 7.31492e-10 -10.2786 0.731801 -0.0259123 5.17035e-10 -3.51712e-10 7.31493e-10 -2.22167 -0.733487 0.20892 -2.03217e-16 0.0 -3.88251e-19 -16.7335 -28.4054 -14.5716 -1.96788 69.0094 2.23518 -2.32864 2.86979 -19.6064 2.03217e-16 0.0 3.88251e-19 -6.77983 -25.2438 0.0891217 0.177914 31.804 -0.290833 3.61646 -9.26036 13.4758
0.73333 82.4796 4.365499999999997 5.4446 4.1615 9.7486 -9.99644 8.94014 1.41975 3.12215 -5.81316 0.253553 2.81735 -1.52474 -1.11315 -5.66529 -10.4134 -3.5936 -0.0 0.0 0.0 -0.0 0.0 0.0 1.53231e-13 8.49032e-14 6.18663e-14 78.4753 15.0637 -3.07802 -10.7465 -4.6073 19.2092 -0.0066053 -2.36189 -0.332031 4.03587e-10 -3.61824e-10 9.85164e-10 6.99557e-10 -6.24084e-10 1.70306e-09 4.03591e-10 -3.61826e-10 9.85152e-10 7.73091 5.47488 0.417314 4.03584e-10 -3.61827e-10 9.85164e-10 2.90554 0.965183 0.102902 4.03596e-10 -3.61825e-10 9.85162e-10 10.2786 0.731801 0.0259123 4.03579e-10 -3.61822e-10 9.85173e-10 2.22167 -0.733487 -0.20892 1.07194e-14 -4.52988e-14 9.68621e-14 -37.0981 -20.686 7.73354 17.7871 -10.4596 -33.5445 0.0311225 -4.91807 0.69252 2.55571e-10 -1.05529e-09 -3.54814e-10 4.43211e-10 -1.82311e-09 -6.11297e-10 2.55572e-10 -1.05529e-09 -3.54808e-10 -7.73091 5.47488 -0.417314 2.55572e-10 -1.05529e-09 -3.54814e-10 -2.90554 0.965183 -0.102902 2.55564e-10 -1.05529e-09 -3.54816e-10 -10.2786 0.731801 -0.0259123 2.55573e-10 -1.05529e-09 -3.54817e-10 -2.22167 -0.733487 0.20892 -2.03217e-16 0.0 -3.88251e-19 -17.9784 -30.5219 -15.5361 -2.02505 69.5105 2.34301 -3.0548 1.17849 -20.2601 2.03217e-16 0.0 3.88251e-19 -7.55405 -23.8821 -0.25164 0.165453 31.4784 -0.336206 3.7931 -9.27118 14.2224
0.96957 82.4025 5.824999999999989 5.9728 3.9674 9.6273 -10.5954 9.06409 1.12792 3.34511 -5.89361 0.178078 2.92627 -1.63363 -0.993973 -5.76961 -10.3557 -3.40236 -0.0 0.0 0.0 -0.0 0.0 0.0 1.50742e-13 9.70147e-14 7.33018e-14 78.3411 15.0012 -3.01527 -10.6695 -4.5583 19.0631 -0.00412107 -1.55358 -0.218191 -4.26731e-10 -1.00538e-09 2.08389e-09 -7.33613e-10 -1.737e-09 3.60379e-09 -4.26727e-10 -1.00538e-09 2.08388e-09 7.73091 5.47488 0.417314 -4.26732e-10 -1.00539e-09 2.08389e-09 2.90554 0.965183 0.102902 -4.26724e-10 -1.00538e-09 2.08389e-09 10.2786 0.731801 0.0259123 -4.26735e-10 -1.00538e-09 2.0839e-09 2.22167 -0.733487 -0.20892 -1.6186e-15 -3.81669e-14 9.04967e-14 -36.7984 -20.7026 7.77342 17.8228 -10.4974 -33.6239 0.0542877 -6.62693 0.935134 -2.25874e-10 -1.80496e-09 -1.68504e-09 -3.81903e-10 -3.11632e-09 -2.91397e-09 -2.25874e-10 -1.80496e-09 -1.68504e-09 -7.73091 5.47488 -0.417314 -2.25873e-10 -1.80496e-09 -1.68504e-09 -2.90554 0.965183 -0.102902 -2.2588e-10 -1.80496e-09 -1.68504e-09 -10.2786 0.731801 -0.0259123 -2.25871e-10 -1.80496e-09 -1.68505e-09 -2.22167 -0.733487 0.20892 -2.03217e-16 0.0 -3.88251e-19 -19.2026 -32.643 -16.4195 -2.04781 69.782 2.41482 -3.72926 -0.247699 -20.981 2.03217e-16 0.0 3.88251e-19 -8.36416 -22.5245 -0.578115 0.153662 31.1879 -0.385848 4.02003 -9.36502 15.0784
1.19239 82.311 7.287399999999991 6.5168 3.7325 9.4994 -11.2078 9.1976 0.874105 3.58473 -5.98099 0.114353 3.02891 -1.73507 -0.883853 -5.86555 -10.3085 -3.22653 -0.0 0.0 0.0 -0.0 0.0 0.0 1.1092e-13 1.26764e-13 7.52579e-14 78.0687 15.1095 -2.90309 -10.5693 -4.49492 18.8729 -0.00234953 -0.574457 -0.080541 -1.21568e-09 -1.53978e-09 2.91723e-09 -2.09589e-09 -2.66151e-09 5.0455e-09 -1.21568e-09 -1.53978e-09 2.91723e-09 7.73091 5.47488 0.417314 -1.21568e-09 -1.53978e-09 2.91723e-09 2.90554 0.965183 0.102902 -1.21568e-09 -1.53978e-09 2.91723e-09 10.2786 0.731801 0.0259123 -1.21568e-09 -1.53978e-09 2.91724e-09 2.22167 -0.733487 -0.20892 -2.91381e-14 -3.08386e-15 5.24147e-14 -36.4757 -20.7266 7.81693 17.8603 -10.5373 -33.7077 0.082654 -8.23052 1.16458 -6.78246e-10 -2.33054e-09 -2.80121e-09 -1.15696e-09 -4.02257e-09 -4.84636e-09 -6.78247e-10 -2.33054e-09 -2.8012e-09 -7.73091 5.47488 -0.417314 -6.78245e-10 -2.33055e-09 -2.80121e-09 -2.90554 0.965183 -0.102902 -6.78251e-10 -2.33055e-09 -2.80122e-09 -10.2786 0.731801 -0.0259123 -6.78241e-10 -2.33054e-09 -2.80122e-09 -2.22167 -0.733487 0.20892 -2.03217e-16 0.0 -3.88251e-19 -20.3606 -34.7004 -17.22 -2.03009 69.7703 2.44074 -4.32542 -1.42325 -21.6485 2.03217e-16 0.0 3.88251e-19 -9.13184 -21.1351 -0.837519 0.142079 30.848 -0.434243 4.25159 -9.47394 15.9239
